<svg xmlns="http://www.w3.org/2000/svg" width="528" height="542.93" viewBox="0 0 528 542.93"><path d="M483.44,12.941C460.625,7.885,356.7.114,265.159,0,172.187.114,67.273,7.885,44.572,12.941,33.552,15.384-.034,22.848,0,61.83c-.034,50.15,1.273,302.141,27.029,337.339C71.647,460.284,252.207,538.782,259.978,542.1a10.145,10.145,0,0,0,8.044,0c7.828-3.284,195.353-81.94,233.232-143.509C525.921,358.506,527.909,64.75,528,61.819c-.068-38.971-33.653-46.435-44.56-48.878Zm-215.406,510.2Z" data-name="Path 3160"/><path fill="#fff" d="M465.115,369.077c-31.585,51.23-192.171,121.695-219.723,133.443C218.419,490.6,62.923,420.079,25.1,368.213,8.2,345.183,1.922,156.477,1.8,42.951c.125-16.395,7.851-24.2,28.756-28.756C49.914,9.8,152.112,1.8,246.539,1.822,339.489,1.8,440.744,9.8,460.229,14.195c20.792,4.556,28.518,12.361,28.472,28.756C488.747,101.5,482.577,340.616,465.115,369.077Z" data-name="Path 3161" transform="translate(18.62 18.879)"/><path d="M24.491,64.059c2.806-9.691,24.019-23.678,27.325-20.7-.125-3.579,15.3-17.713,21-15.247-1.375-4.283,19.781-17.52,24.734-13.8,1.227-5.374,31.881-9.43,37.959-4.317,3.5-3.92,30.688,2.67,31.347,9.5,5.011-4.374,32.744,24.939,32.79,39.686,0,5.76-26.086-17.5-42.561-12.373C129.927,55.071,95.3,84.021,65.336,127.616c-8.374,11.85-29.813,16.179-34.517-3.159,0,.011-9.248-50.65-6.328-60.4Z" data-name="Path 3162" transform="translate(247.86 79.155)"/><path d="M26.265,287.391c-4.363-7.237-3.011-15.906.568-19.269,5.067-4.874,19.576-.943,20.712-5.465,2.863-10.35-4.5-14.009-3.159-28.472.364-5.01,9.919-41.6,12.361-44.867,2.022-2.681,14.236-6.942,17.542-8.328,2.011-2.284,3.431-5.045,3.454-9.782-15.861-4.976-20.144,9.873-22.428,9.214-2.3-.477,1.17-16.168,3.159-17.826,2-1.761,20.724-5.919,22.723-9.214,2.329-3.488,10.964-36.869,0-37.38.977.136-.454-2.261.284-2.022,22.542,5.2,37.709-102.175,92.893-101.8C229.3,12.665,226.435,92.118,223.265,95c-6.294,5.579-15.384,3.545-15.815,8.624-2.727,48.594-46.151,100.6-59.24,96.063-7.908-2.772-1.182-27.461,2.59-27.9-3.488-1.568-.057-26.984,4.022-27.609-3.227-2.238-.375-25.666,3.738-25.882-2.056-1.841-1.841-17.883-6.033-25.882-3.079-6.113-16.679-9.407-17.542,5.465,8.328-3.942,8.9,22.928,5.465,27.609-3.42,4.465-25.416,14.747-32.21,20.417.5,11.464-10.35,55.456-18.406,68.17-7.942,12.441-15.94,19.872-20.417,31.347-4.67,11.373-1.738,30.858-12.077,39.686-4.624,3.863-29.2,5.59-31.074,2.284Z" data-name="Path 3163" transform="translate(243.791 126.163)"/><path d="M383.941,153.912c2.659-4.374,13.2-6.113,16.974-4.022,4.5,2.522,7.805,37.459,3.159,38.539,4.068,2.091-1,28.6-6.044,28.756,4,1.591-4.283,27.586-9.2,26.745,2.909,3.988-10.51,25.121-14.089,23.882-1.272,21.814-66.75,32.188-65.284,13.8.716-8.817,10.51,4.17,54.65-64.421,19.36-30.449,16.088-56.729,19.837-63.284ZM181.476,63.894c-4.522-10.089-23.291-23.507-26.461-20.417,0-3.693-15.429-17.826-21-15.247,1.25-4.408-19.917-17.645-25.018-13.8-1.068-5.488-31.722-9.544-37.675-4.317C67.7,6.074,40.512,12.664,39.978,19.595c-5.135-4.488-32.869,24.825-32.79,39.7C7.063,64.939,33.15,41.67,49.465,46.635c27.313,8.43,61.944,37.391,92.03,80.816,8.249,12.032,29.222,16.349,33.937-3.17.011,0,10.669-50.48,6.044-60.387Z" data-name="Path 3164" transform="translate(74.48 79.616)"/><path d="M202.959,287.158c4.238-7.635,3.465-16.031-.284-19.553-4.9-4.7-19.122-.489-20.417-4.885-2.7-10.475,4.67-14.134,3.454-28.472-.489-5.135-10.044-41.709-12.361-44.867-2.159-2.806-14.361-7.067-17.542-8.339-2.136-2.4-3.545-5.17-3.738-10.066,16.031-4.817,20.315,10.044,22.723,9.5,2.159-.6-1.3-16.293-3.159-18.122-2.136-1.6-20.576-6.033-23.007-8.919-2.511-3.363-10.8-36.982,0-37.664-.818.307.614-2.1-.284-2.022-22.382,5.374-37.55-102.016-92.893-101.517C.687,12.592,3.551,92.044,6.846,95.055,13,100.52,22.1,98.486,22.377,103.679c2.875,48.48,46.31,100.483,59.535,95.768,7.783-2.6,1.057-27.279-2.59-27.893,3.363-1.386-.057-26.814-4.022-27.313,3.1-2.363.239-25.791-3.749-26.177,1.92-1.67,1.716-17.724,5.749-25.6,3.227-6.238,16.838-9.532,17.542,5.465-8.158-4.056-8.737,22.8-5.17,27.313,3.295,4.624,25.291,14.906,32.2,20.7-.625,11.35,10.225,55.343,18.122,67.875,8.1,12.611,16.1,20.053,20.7,31.358,4.579,11.646,6.715,34.449,12.361,39.686,5.067,4.613,28.018,5.829,29.9,2.3ZM209.3,309.3c-17.2.318-32.244-11.9-29.336-15.247,6.01-6.226,16.27,3,28.472-2.3,12.089,5.01,22.087-3.908,29.9,2.011C242.827,297,226.376,309.064,209.3,309.3Z" data-name="Path 3165" transform="translate(55.292 126.691)"/><path d="M26.515,24.362c-2.5-4.5-13.032-5.079-16.974-2.875C5.2,23.873,1.894,57.674,6.382,58.867c-3.908,1.977,1.159,28.484,6.328,28.484C8.6,89.1,16.88,115.1,21.629,114.38c-2.75,3.863,10.669,25.007,14.384,23.871,1.159,21.712,66.625,32.074,65.284,13.816-.841-8.942-10.635,4.045-54.638-64.7-19.508-30.279-16.224-56.547-20.144-63Z" data-name="Path 3166" transform="translate(43.951 209.734)"/></svg>