<svg xmlns="http://www.w3.org/2000/svg" width="512" height="512" fillRule="evenodd" clipRule="evenodd" image-rendering="optimizeQuality" shape-rendering="geometricPrecision" text-rendering="geometricPrecision" viewBox="0 0 512 512"><path fill="#2b2a29" d="M500 264s-16 18-33 8-88-48-119-63c-25-12-121-54-186-74-23-7-40-10-64-12-34-3-40-3-61 4-26 8-20 14-20 14s-11 9-11 13 2 9 6 11 9 3 9 3l6 2s-4-3 2-10 12-6 14 0-5 11-5 11l-6 1s-5 5-1 9c4 5 13 4 19-2s14-14 32-10 33 17 33 17l9 9s-25 0-37 9-10 18-7 24 17 11 23 4c7-7 3-15 3-15s3-3 10-1c7 3 30 13 42 13s23-3 26-14 1-25 1-25 5 13 4 21c0 8-1 11-1 11s32 12 51 11c20-1 39-6 51 4s23 38 51 40 43-9 67 3 24 34 48 32c24-3 17-19 17-19s-17 0-30-13c-12-13-12-14-12-14s18 27 50 24 36-23 22-24z"/></svg>