<svg xmlns="http://www.w3.org/2000/svg" viewBox="0 0 50 50"><path d="M40 2H10a1 1 0 0 0-1 1v44a1 1 0 0 0 1 1h30a1 1 0 0 0 1-1V3a1 1 0 0 0-1-1zm-16.863 8.094a74.232 74.232 0 0 1 3.73 0c3.207.082 6.418.422 9.442 1.445l-.676.992c-2.559-.898-5.598-1.332-8.805-1.426-1.21-.039-2.445-.039-3.656 0-3.207.094-6.242.528-8.805 1.426l-.672-.992c3.024-1.023 6.23-1.363 9.442-1.445zm-6.051 26.984c-.066.281-.293.516-.602.637h-.937l-.055.023v2.532h-.586v-2.532l-.047-.023h-.937c-.309-.121-.535-.356-.602-.637v-.004h3.766zm4.254 3.188h-2.227c-.312-.125-.543-.36-.605-.641h3.433c-.062.281-.289.516-.601.64zm0-1.301h-2.227c-.312-.121-.543-.36-.605-.637h3.433c-.062.277-.289.516-.601.637zm0-1.238h-2.227c-.312-.125-.543-.36-.605-.641h3.433c-.062.281-.289.516-.601.64zm5.527 2.543h-3.25l.012-.024c.062-.281.289-.496.594-.621h2.066v-.66h-2.672v-1.887h3.235a.88.88 0 0 1-.602.625h-2.059v.633h2.676zm4.293-.024l-2.637-.008v-3.16l.579-.004-.004 2.543h2.57a.886.886 0 0 1-.508.63zm-2.707-26.613L25 32.164l-3.453-18.531c-1.848 0-3.766.285-3.817 1.644-.867-.218-2.449-1.203-2.812-1.894 2.637-1.067 6.984-1.207 8.871-1.137L25 13.801l1.21-1.555c1.888-.07 6.24.07 8.876 1.137-.367.691-1.95 1.676-2.82 1.894-.047-1.359-1.97-1.644-3.813-1.644zm8.149 26.625h-.575v-1.29h-2.093v1.29h-.579V38.32l3.247.004zm-.516-2.547h-2.227c-.312-.125-.554-.348-.613-.629h3.434c-.063.281-.282.504-.594.629z"/></svg>